<?xml version="1.0" encoding="utf-8"?>
<!-- Generator: Adobe Illustrator 23.0.2, SVG Export Plug-In . SVG Version: 6.00 Build 0)  -->
<svg version="1.1" id="圖層_1" xmlns="http://www.w3.org/2000/svg" xmlns:xlink="http://www.w3.org/1999/xlink" x="0px" y="0px"
	 viewBox="0 0 100 100" style="enable-background:new 0 0 100 100;" xml:space="preserve">
<style type="text/css">
	.st0{fill:#FFFFFF;}
	.st1{display:none;}
	.st2{display:inline;fill:#4D4D4D;}
	.st3{fill:#4D4D4F;}
</style>
<path class="st0" d="M99,50c0,25.7-19.7,46.8-44.8,48.8C52.9,99,51.5,99,50.1,99c-3.7,0-7.2-0.4-10.6-1.1C17.4,92.9,1,73.3,1,50
	C1,22.9,23,1,50.1,1C77.1,1,99,22.9,99,50z"/>
<g class="st1">
	<path class="st2" d="M55.1,29c0.7-0.8,2-1.4,4-1.4c1.8,0,4,0.2,6,0.8l1.7-9.3c-3.5-1.2-7.2-1.6-10.9-1.6c-3.8,0-6.7,0.6-9.1,1.9
		c-2.4,1.4-4,2.9-4.9,5c-0.9,1.9-1.4,5.2-1.4,9.3v3.6h-7.3v10.6h7.3v33.3c3.1,0.7,6.3,1,9.6,1c1.2,0,2.5,0,3.8-0.2V48.1h9.7V37.5
		h-9.7v-3.4C53.8,31.5,54.2,29.9,55.1,29z"/>
</g>
<g id="XMLID_77_">
	<path class="st3" d="M44.8,81.1c-17.5,0-31.7-14.2-31.7-31.7c0-17.5,14.2-31.7,31.7-31.7c17.5,0,31.7,14.2,31.7,31.7
		C76.5,66.9,62.3,81.1,44.8,81.1z M44.8,24.1c-13.9,0-25.3,11.3-25.3,25.3s11.3,25.3,25.3,25.3s25.3-11.3,25.3-25.3
		S58.7,24.1,44.8,24.1z"/>
	<rect x="76.8" y="59" transform="matrix(0.5568 -0.8307 0.8307 0.5568 -23.6541 97.9565)" class="st3" width="6.4" height="24.3"/>
</g>
</svg>
